<svg xmlns="http://www.w3.org/2000/svg" fill="none" viewBox="0 0 268 75" height="75" width="268">
<path fill="#EC0915" d="M111.026 49.35L105.79 74H91L106.72 0H159.1C163.65 0 167.55 1.11 170.8 3.34C174.05 5.57 176.39 8.55 177.82 12.29C179.25 16.03 179.48 20.16 178.52 24.68C177.49 29.54 175.29 33.94 171.92 37.87C168.55 41.8 164.58 44.8 160 46.87L168.71 73.76H151.9L144 49.35H111.026ZM114.17 34.54L118.37 14.79V14.78H155.96C158.69 14.78 160.81 15.75 162.33 17.68C163.85 19.61 164.32 21.94 163.74 24.66C163.16 27.38 161.7 29.71 159.36 31.64C157.02 33.57 154.48 34.54 151.76 34.54H114.17Z" clip-rule="evenodd" fill-rule="evenodd"></path>
<path fill="#EC0915" d="M260.57 37.08C263.58 33.36 265.57 29.22 266.54 24.67V24.68C267.5 20.16 267.27 16.03 265.84 12.29C264.41 8.55 262.07 5.57 258.82 3.34C255.57 1.11 251.67 0 247.12 0H194.74L179.01 74.01H193.8L199.04 49.34H236.63C241.18 49.34 245.55 48.22 249.75 46C253.95 43.78 257.56 40.8 260.57 37.08ZM202.18 34.54L206.38 14.79V14.78H243.97C246.7 14.78 248.82 15.75 250.34 17.68C251.86 19.61 252.33 21.94 251.75 24.66C251.17 27.38 249.71 29.71 247.37 31.64C245.03 33.57 242.49 34.54 239.77 34.54H202.18Z" clip-rule="evenodd" fill-rule="evenodd"></path>
<path fill="#EC0915" d="M16.4884 2.366C16.7869 0.985368 18.0081 0 19.4207 0H87.282C89.1942 0 90.6184 1.76499 90.2143 3.634L75.5116 71.634C75.2131 73.0146 73.9919 74 72.5793 74H4.71797C2.80577 74 1.38162 72.235 1.78573 70.366L16.4884 2.366Z"></path>
<path fill="#F5F3EF" d="M30.9245 38.7344C31.1229 37.8013 30.4113 36.9224 29.4573 36.9224H17.7554C17.0472 36.9224 16.4355 37.4177 16.2882 38.1104L10.6441 64.6536C10.4457 65.5867 11.1573 66.4655 12.1113 66.4655H23.8132C24.5214 66.4655 25.1331 65.9702 25.2804 65.2775L30.9245 38.7344Z"></path>
<path fill="#F5F3EF" d="M32.8026 64.6537C32.6042 65.5868 33.3158 66.4655 34.2698 66.4655H45.9717C46.68 66.4655 47.2917 65.9701 47.439 65.2774L56.2192 23.9653C56.4175 23.0322 55.7059 22.1534 54.752 22.1534H43.05C42.3418 22.1534 41.73 22.6488 41.5828 23.3416L32.8026 64.6537Z"></path>
<path fill="#F5F3EF" d="M68.3443 7.38446C67.6361 7.38446 67.0243 7.87982 66.8771 8.57257L54.956 64.6536C54.7576 65.5867 55.4692 66.4655 56.4232 66.4655H68.1251C68.8333 66.4655 69.4451 65.9701 69.5923 65.2774L81.5134 9.19634C81.7118 8.26323 81.0002 7.38446 80.0462 7.38446H68.3443Z"></path>
</svg>
